<?xml version="1.0" encoding="UTF-8"?>
<!DOCTYPE svg PUBLIC "-//W3C//DTD SVG 1.1//EN" "http://www.w3.org/Graphics/SVG/1.1/DTD/svg11.dtd">
<svg xmlns="http://www.w3.org/2000/svg" version="1.1" width="100px" height="100px" style="shape-rendering:geometricPrecision; text-rendering:geometricPrecision; image-rendering:optimizeQuality; fill-rule:evenodd; clip-rule:evenodd" xmlns:xlink="http://www.w3.org/1999/xlink">
<g><path style="opacity:0.983" fill="#3ec1a7" d="M 31.5,28.5 C 33.2294,29.2362 34.2294,30.5695 34.5,32.5C 34.5,34.8333 34.5,37.1667 34.5,39.5C 53.8333,39.5 73.1667,39.5 92.5,39.5C 93.4584,39.9528 94.2917,40.6195 95,41.5C 95.6667,48.5 95.6667,55.5 95,62.5C 94.1841,63.8228 93.0174,64.4894 91.5,64.5C 72.5,64.5 53.5,64.5 34.5,64.5C 34.5,66.8333 34.5,69.1667 34.5,71.5C 33.5,72.8333 32.5,74.1667 31.5,75.5C 28.4359,75.8563 25.7693,75.0229 23.5,73C 17.9687,67.134 12.1353,61.634 6,56.5C 4.57834,53.9699 4.24501,51.3033 5,48.5C 12.1205,42.3464 18.9538,35.8464 25.5,29C 27.4727,28.5045 29.4727,28.3379 31.5,28.5 Z"/></g>
<g><path style="opacity:0.257" fill="#020504" d="M 31.5,28.5 C 33.7224,28.178 35.5557,28.8446 37,30.5C 37.4974,33.146 37.6641,35.8127 37.5,38.5C 35.9397,36.8439 34.9397,34.8439 34.5,32.5C 34.2294,30.5695 33.2294,29.2362 31.5,28.5 Z"/></g>
<g><path style="opacity:1" fill="#333c3a" d="M 27.5,33.5 C 28.5,33.5 29.5,33.5 30.5,33.5C 30.5,36.8333 30.5,40.1667 30.5,43.5C 50.8333,43.5 71.1667,43.5 91.5,43.5C 91.8066,49.0934 91.4732,54.5934 90.5,60C 70.5028,60.5 50.5028,60.6666 30.5,60.5C 30.8204,63.8984 30.487,67.2317 29.5,70.5C 22.3185,64.8158 15.6519,58.6491 9.5,52C 15.6355,46.0303 21.6355,39.8636 27.5,33.5 Z"/></g>
<g><path style="opacity:1" fill="#3ec1a7" d="M 26.5,38.5 C 27.1667,40.8333 27.8333,43.1667 28.5,45.5C 48.5,45.5 68.5,45.5 88.5,45.5C 88.5,49.5 88.5,53.5 88.5,57.5C 68.5,57.5 48.5,57.5 28.5,57.5C 28.6646,60.5184 28.498,63.5184 28,66.5C 22.738,61.7826 17.5713,56.9493 12.5,52C 17.062,47.2691 21.7287,42.7691 26.5,38.5 Z"/></g>
<g><path style="opacity:1" fill="#388173" d="M 26.5,38.5 C 26.56,37.9569 26.8933,37.6236 27.5,37.5C 28.48,40.0865 28.8134,42.7531 28.5,45.5C 27.8333,43.1667 27.1667,40.8333 26.5,38.5 Z"/></g>
<g><path style="opacity:0.62" fill="#34a58d" d="M 34.5,32.5 C 34.9397,34.8439 35.9397,36.8439 37.5,38.5C 55.8333,38.5 74.1667,38.5 92.5,38.5C 92.5,38.8333 92.5,39.1667 92.5,39.5C 73.1667,39.5 53.8333,39.5 34.5,39.5C 34.5,37.1667 34.5,34.8333 34.5,32.5 Z"/></g>
<g><path style="opacity:0.241" fill="#060f0d" d="M 92.5,39.5 C 92.5,39.1667 92.5,38.8333 92.5,38.5C 94.9032,38.393 96.7365,39.393 98,41.5C 98.6667,48.1667 98.6667,54.8333 98,61.5C 96.7275,64.2224 94.5608,65.5557 91.5,65.5C 91.5,65.1667 91.5,64.8333 91.5,64.5C 93.0174,64.4894 94.1841,63.8228 95,62.5C 95.6667,55.5 95.6667,48.5 95,41.5C 94.2917,40.6195 93.4584,39.9528 92.5,39.5 Z"/></g>
<g><path style="opacity:0.337" fill="#309783" d="M 91.5,64.5 C 91.5,64.8333 91.5,65.1667 91.5,65.5C 73.5,65.5 55.5,65.5 37.5,65.5C 35.9397,67.1561 34.9397,69.1561 34.5,71.5C 34.5,69.1667 34.5,66.8333 34.5,64.5C 53.5,64.5 72.5,64.5 91.5,64.5 Z"/></g>
<g><path style="opacity:0.274" fill="#040a08" d="M 37.5,65.5 C 38.9368,71.1189 36.9368,74.4523 31.5,75.5C 32.5,74.1667 33.5,72.8333 34.5,71.5C 34.9397,69.1561 35.9397,67.1561 37.5,65.5 Z"/></g>
</svg>
